<mxfile host="app.diagrams.net" agent="Mozilla/5.0 (Windows NT 10.0; Win64; x64) AppleWebKit/537.36 (KHTML, like Gecko) Chrome/131.0.0.0 Safari/537.36 Edg/131.0.0.0" version="25.0.3">
  <diagram name="Page-1" id="sONVhgNosmHbR6vjq5pz">
    <mxGraphModel dx="786" dy="1632" grid="1" gridSize="10" guides="1" tooltips="1" connect="1" arrows="1" fold="1" page="1" pageScale="1" pageWidth="827" pageHeight="1169" math="0" shadow="0">
      <root>
        <mxCell id="0" />
        <mxCell id="1" parent="0" />
        <mxCell id="g5x0DzIfWC2PfQX0NMsi-55" value="" style="edgeStyle=orthogonalEdgeStyle;rounded=0;orthogonalLoop=1;jettySize=auto;html=1;" edge="1" parent="1" source="g5x0DzIfWC2PfQX0NMsi-6" target="g5x0DzIfWC2PfQX0NMsi-54">
          <mxGeometry relative="1" as="geometry" />
        </mxCell>
        <mxCell id="g5x0DzIfWC2PfQX0NMsi-6" value="" style="sketch=0;points=[[0,0,0],[0.25,0,0],[0.5,0,0],[0.75,0,0],[1,0,0],[0,1,0],[0.25,1,0],[0.5,1,0],[0.75,1,0],[1,1,0],[0,0.25,0],[0,0.5,0],[0,0.75,0],[1,0.25,0],[1,0.5,0],[1,0.75,0]];outlineConnect=0;fontColor=#232F3E;fillColor=#ED7100;strokeColor=#ffffff;dashed=0;verticalLabelPosition=bottom;verticalAlign=top;align=center;html=1;fontSize=12;fontStyle=0;aspect=fixed;shape=mxgraph.aws4.resourceIcon;resIcon=mxgraph.aws4.compute;" vertex="1" parent="1">
          <mxGeometry x="120" y="120" width="78" height="78" as="geometry" />
        </mxCell>
        <mxCell id="g5x0DzIfWC2PfQX0NMsi-62" value="" style="edgeStyle=orthogonalEdgeStyle;rounded=0;orthogonalLoop=1;jettySize=auto;html=1;" edge="1" parent="1" source="g5x0DzIfWC2PfQX0NMsi-7" target="g5x0DzIfWC2PfQX0NMsi-61">
          <mxGeometry relative="1" as="geometry" />
        </mxCell>
        <mxCell id="g5x0DzIfWC2PfQX0NMsi-7" value="" style="sketch=0;points=[[0,0,0],[0.25,0,0],[0.5,0,0],[0.75,0,0],[1,0,0],[0,1,0],[0.25,1,0],[0.5,1,0],[0.75,1,0],[1,1,0],[0,0.25,0],[0,0.5,0],[0,0.75,0],[1,0.25,0],[1,0.5,0],[1,0.75,0]];outlineConnect=0;fontColor=#232F3E;fillColor=#ED7100;strokeColor=#ffffff;dashed=0;verticalLabelPosition=bottom;verticalAlign=top;align=center;html=1;fontSize=12;fontStyle=0;aspect=fixed;shape=mxgraph.aws4.resourceIcon;resIcon=mxgraph.aws4.compute;" vertex="1" parent="1">
          <mxGeometry x="520" y="120" width="78" height="78" as="geometry" />
        </mxCell>
        <mxCell id="g5x0DzIfWC2PfQX0NMsi-47" value="" style="edgeStyle=orthogonalEdgeStyle;rounded=0;orthogonalLoop=1;jettySize=auto;html=1;" edge="1" parent="1" source="g5x0DzIfWC2PfQX0NMsi-8">
          <mxGeometry relative="1" as="geometry">
            <mxPoint x="349" y="80" as="targetPoint" />
          </mxGeometry>
        </mxCell>
        <mxCell id="g5x0DzIfWC2PfQX0NMsi-8" value="" style="sketch=0;points=[[0,0,0],[0.25,0,0],[0.5,0,0],[0.75,0,0],[1,0,0],[0,1,0],[0.25,1,0],[0.5,1,0],[0.75,1,0],[1,1,0],[0,0.25,0],[0,0.5,0],[0,0.75,0],[1,0.25,0],[1,0.5,0],[1,0.75,0]];outlineConnect=0;fontColor=#232F3E;fillColor=#ED7100;strokeColor=#ffffff;dashed=0;verticalLabelPosition=bottom;verticalAlign=top;align=center;html=1;fontSize=12;fontStyle=0;aspect=fixed;shape=mxgraph.aws4.resourceIcon;resIcon=mxgraph.aws4.compute;" vertex="1" parent="1">
          <mxGeometry x="310" y="120" width="78" height="78" as="geometry" />
        </mxCell>
        <mxCell id="g5x0DzIfWC2PfQX0NMsi-71" value="" style="edgeStyle=orthogonalEdgeStyle;rounded=0;orthogonalLoop=1;jettySize=auto;html=1;" edge="1" parent="1" source="g5x0DzIfWC2PfQX0NMsi-11" target="g5x0DzIfWC2PfQX0NMsi-70">
          <mxGeometry relative="1" as="geometry" />
        </mxCell>
        <mxCell id="g5x0DzIfWC2PfQX0NMsi-11" value="ec2 instance&lt;div&gt;&lt;br&gt;&lt;/div&gt;" style="text;html=1;align=center;verticalAlign=middle;resizable=0;points=[];autosize=1;strokeColor=none;fillColor=none;" vertex="1" parent="1">
          <mxGeometry x="108" y="203" width="90" height="40" as="geometry" />
        </mxCell>
        <mxCell id="g5x0DzIfWC2PfQX0NMsi-67" value="" style="edgeStyle=orthogonalEdgeStyle;rounded=0;orthogonalLoop=1;jettySize=auto;html=1;" edge="1" parent="1" source="g5x0DzIfWC2PfQX0NMsi-12" target="g5x0DzIfWC2PfQX0NMsi-66">
          <mxGeometry relative="1" as="geometry" />
        </mxCell>
        <mxCell id="g5x0DzIfWC2PfQX0NMsi-12" value="ec2 instance&lt;div&gt;&lt;br&gt;&lt;/div&gt;" style="text;html=1;align=center;verticalAlign=middle;resizable=0;points=[];autosize=1;strokeColor=none;fillColor=none;" vertex="1" parent="1">
          <mxGeometry x="514" y="203" width="90" height="40" as="geometry" />
        </mxCell>
        <mxCell id="g5x0DzIfWC2PfQX0NMsi-19" value="" style="edgeStyle=orthogonalEdgeStyle;rounded=0;orthogonalLoop=1;jettySize=auto;html=1;" edge="1" parent="1" source="g5x0DzIfWC2PfQX0NMsi-13">
          <mxGeometry relative="1" as="geometry">
            <mxPoint x="354" y="260" as="targetPoint" />
          </mxGeometry>
        </mxCell>
        <mxCell id="g5x0DzIfWC2PfQX0NMsi-13" value="ec2 instance&lt;div&gt;&lt;br&gt;&lt;/div&gt;" style="text;html=1;align=center;verticalAlign=middle;resizable=0;points=[];autosize=1;strokeColor=none;fillColor=none;" vertex="1" parent="1">
          <mxGeometry x="310" y="203" width="90" height="40" as="geometry" />
        </mxCell>
        <mxCell id="g5x0DzIfWC2PfQX0NMsi-75" value="" style="edgeStyle=orthogonalEdgeStyle;rounded=0;orthogonalLoop=1;jettySize=auto;html=1;" edge="1" parent="1" source="g5x0DzIfWC2PfQX0NMsi-41" target="g5x0DzIfWC2PfQX0NMsi-53">
          <mxGeometry relative="1" as="geometry" />
        </mxCell>
        <mxCell id="g5x0DzIfWC2PfQX0NMsi-41" value="" style="sketch=0;points=[[0,0,0],[0.25,0,0],[0.5,0,0],[0.75,0,0],[1,0,0],[0,1,0],[0.25,1,0],[0.5,1,0],[0.75,1,0],[1,1,0],[0,0.25,0],[0,0.5,0],[0,0.75,0],[1,0.25,0],[1,0.5,0],[1,0.75,0]];outlineConnect=0;fontColor=#232F3E;fillColor=#ED7100;strokeColor=#ffffff;dashed=0;verticalLabelPosition=bottom;verticalAlign=top;align=center;html=1;fontSize=12;fontStyle=0;aspect=fixed;shape=mxgraph.aws4.resourceIcon;resIcon=mxgraph.aws4.auto_scaling2;" vertex="1" parent="1">
          <mxGeometry x="306" y="-20" width="78" height="78" as="geometry" />
        </mxCell>
        <mxCell id="g5x0DzIfWC2PfQX0NMsi-52" value="Auto Scaling" style="text;html=1;align=center;verticalAlign=middle;resizable=0;points=[];autosize=1;strokeColor=none;fillColor=none;" vertex="1" parent="1">
          <mxGeometry x="306" y="58" width="90" height="30" as="geometry" />
        </mxCell>
        <mxCell id="g5x0DzIfWC2PfQX0NMsi-53" value="Application Load Balancer" style="sketch=0;outlineConnect=0;fontColor=#232F3E;gradientColor=none;strokeColor=#ffffff;fillColor=#232F3E;dashed=0;verticalLabelPosition=middle;verticalAlign=bottom;align=center;html=1;whiteSpace=wrap;fontSize=10;fontStyle=1;spacing=3;shape=mxgraph.aws4.productIcon;prIcon=mxgraph.aws4.application_load_balancer;" vertex="1" parent="1">
          <mxGeometry x="305" y="-180" width="80" height="110" as="geometry" />
        </mxCell>
        <mxCell id="g5x0DzIfWC2PfQX0NMsi-60" value="" style="edgeStyle=orthogonalEdgeStyle;rounded=0;orthogonalLoop=1;jettySize=auto;html=1;" edge="1" parent="1" source="g5x0DzIfWC2PfQX0NMsi-54" target="g5x0DzIfWC2PfQX0NMsi-59">
          <mxGeometry relative="1" as="geometry" />
        </mxCell>
        <mxCell id="g5x0DzIfWC2PfQX0NMsi-54" value="" style="shape=waypoint;sketch=0;size=6;pointerEvents=1;points=[];fillColor=#ED7100;resizable=0;rotatable=0;perimeter=centerPerimeter;snapToPoint=1;verticalAlign=top;strokeColor=#ffffff;fontColor=#232F3E;dashed=0;fontStyle=0;" vertex="1" parent="1">
          <mxGeometry x="149" y="30" width="20" height="20" as="geometry" />
        </mxCell>
        <mxCell id="g5x0DzIfWC2PfQX0NMsi-59" value="" style="shape=waypoint;sketch=0;size=6;pointerEvents=1;points=[];fillColor=#ED7100;resizable=0;rotatable=0;perimeter=centerPerimeter;snapToPoint=1;verticalAlign=top;strokeColor=#ffffff;fontColor=#232F3E;dashed=0;fontStyle=0;" vertex="1" parent="1">
          <mxGeometry x="249" y="30" width="20" height="20" as="geometry" />
        </mxCell>
        <mxCell id="g5x0DzIfWC2PfQX0NMsi-74" value="" style="edgeStyle=orthogonalEdgeStyle;rounded=0;orthogonalLoop=1;jettySize=auto;html=1;" edge="1" parent="1" source="g5x0DzIfWC2PfQX0NMsi-61" target="g5x0DzIfWC2PfQX0NMsi-63">
          <mxGeometry relative="1" as="geometry" />
        </mxCell>
        <mxCell id="g5x0DzIfWC2PfQX0NMsi-61" value="" style="shape=waypoint;sketch=0;size=6;pointerEvents=1;points=[];fillColor=#ED7100;resizable=0;rotatable=0;perimeter=centerPerimeter;snapToPoint=1;verticalAlign=top;strokeColor=#ffffff;fontColor=#232F3E;dashed=0;fontStyle=0;" vertex="1" parent="1">
          <mxGeometry x="549" y="30" width="20" height="20" as="geometry" />
        </mxCell>
        <mxCell id="g5x0DzIfWC2PfQX0NMsi-63" value="" style="shape=waypoint;sketch=0;size=6;pointerEvents=1;points=[];fillColor=#ED7100;resizable=0;rotatable=0;perimeter=centerPerimeter;snapToPoint=1;verticalAlign=top;strokeColor=#ffffff;fontColor=#232F3E;dashed=0;fontStyle=0;" vertex="1" parent="1">
          <mxGeometry x="376" y="30" width="20" height="20" as="geometry" />
        </mxCell>
        <mxCell id="g5x0DzIfWC2PfQX0NMsi-69" value="" style="edgeStyle=orthogonalEdgeStyle;rounded=0;orthogonalLoop=1;jettySize=auto;html=1;" edge="1" parent="1" source="g5x0DzIfWC2PfQX0NMsi-66" target="g5x0DzIfWC2PfQX0NMsi-68">
          <mxGeometry relative="1" as="geometry" />
        </mxCell>
        <mxCell id="g5x0DzIfWC2PfQX0NMsi-66" value="" style="shape=waypoint;sketch=0;size=6;pointerEvents=1;points=[];fillColor=none;resizable=0;rotatable=0;perimeter=centerPerimeter;snapToPoint=1;" vertex="1" parent="1">
          <mxGeometry x="549" y="289" width="20" height="20" as="geometry" />
        </mxCell>
        <mxCell id="g5x0DzIfWC2PfQX0NMsi-68" value="" style="shape=waypoint;sketch=0;size=6;pointerEvents=1;points=[];fillColor=none;resizable=0;rotatable=0;perimeter=centerPerimeter;snapToPoint=1;" vertex="1" parent="1">
          <mxGeometry x="396" y="289" width="20" height="20" as="geometry" />
        </mxCell>
        <mxCell id="g5x0DzIfWC2PfQX0NMsi-73" value="" style="edgeStyle=orthogonalEdgeStyle;rounded=0;orthogonalLoop=1;jettySize=auto;html=1;" edge="1" parent="1" source="g5x0DzIfWC2PfQX0NMsi-70" target="g5x0DzIfWC2PfQX0NMsi-72">
          <mxGeometry relative="1" as="geometry" />
        </mxCell>
        <mxCell id="g5x0DzIfWC2PfQX0NMsi-70" value="" style="shape=waypoint;sketch=0;size=6;pointerEvents=1;points=[];fillColor=none;resizable=0;rotatable=0;perimeter=centerPerimeter;snapToPoint=1;" vertex="1" parent="1">
          <mxGeometry x="143" y="289" width="20" height="20" as="geometry" />
        </mxCell>
        <mxCell id="g5x0DzIfWC2PfQX0NMsi-72" value="" style="shape=waypoint;sketch=0;size=6;pointerEvents=1;points=[];fillColor=none;resizable=0;rotatable=0;perimeter=centerPerimeter;snapToPoint=1;" vertex="1" parent="1">
          <mxGeometry x="278" y="289" width="20" height="20" as="geometry" />
        </mxCell>
        <mxCell id="g5x0DzIfWC2PfQX0NMsi-76" value="Amazon RDS" style="sketch=0;outlineConnect=0;fontColor=#232F3E;gradientColor=none;strokeColor=#ffffff;fillColor=#232F3E;dashed=0;verticalLabelPosition=middle;verticalAlign=bottom;align=center;html=1;whiteSpace=wrap;fontSize=10;fontStyle=1;spacing=3;shape=mxgraph.aws4.productIcon;prIcon=mxgraph.aws4.rds;" vertex="1" parent="1">
          <mxGeometry x="308" y="260" width="80" height="100" as="geometry" />
        </mxCell>
      </root>
    </mxGraphModel>
  </diagram>
</mxfile>
